<?xml version="1.0" ?><svg viewBox="0 0 32 32" xmlns="http://www.w3.org/2000/svg"><defs><style>.cls-1{fill:#b3bfc6;}.cls-2{fill:#9ac3f4;}.cls-3{fill:#2f7ded;}</style></defs><title/><g id="Umbrella"><path class="cls-1" d="M14,30a3,3,0,0,1-3-3V26a1,1,0,0,1,2,0v1a1,1,0,0,0,2,0V15a1,1,0,0,1,2,0V27A3,3,0,0,1,14,30Z"/><path class="cls-1" d="M16,7a1,1,0,0,1-1-1V3a1,1,0,0,1,2,0V6A1,1,0,0,1,16,7Z"/><path class="cls-2" d="M16,5A13,13,0,0,0,3,18a1,1,0,0,0,1,1h.13a1,1,0,0,0,1-.75,3,3,0,0,1,5.8,0,1,1,0,0,0,1,.75h.26a1,1,0,0,0,1-.75,3,3,0,0,1,5.8,0,1,1,0,0,0,1,.75h.26a1,1,0,0,0,1-.75,3,3,0,0,1,5.8,0,1,1,0,0,0,1,.75H28a1,1,0,0,0,1-1A13,13,0,0,0,16,5Z"/><path class="cls-3" d="M17,5.05V3a1,1,0,0,0-2,0V5.05A13,13,0,0,0,3,18a1,1,0,0,0,1,1h.13a1,1,0,0,0,1-.75,3,3,0,0,1,5.8,0,1,1,0,0,0,1,.75h.26a1,1,0,0,0,1-.75A3,3,0,0,1,15,16.17V27a1,1,0,0,1-2,0V26a1,1,0,0,0-2,0v1a3,3,0,0,0,6,0V16.17a3,3,0,0,1,1.9,2.08,1,1,0,0,0,1,.75h.26a1,1,0,0,0,1-.75,3,3,0,0,1,5.8,0,1,1,0,0,0,1,.75H28a1,1,0,0,0,1-1A13,13,0,0,0,17,5.05Zm7,9a5,5,0,0,0-4,2,5,5,0,0,0-8,0,5,5,0,0,0-6.48-1.34,11,11,0,0,1,21,0A5,5,0,0,0,24,14Z"/></g></svg>